<mxfile host="app.diagrams.net" modified="2023-08-24T12:45:43.223Z" agent="Mozilla/5.0 (Windows NT 10.0; Win64; x64) AppleWebKit/537.36 (KHTML, like Gecko) Chrome/116.0.0.0 Safari/537.36" etag="pdRcTG43jHS6Y_iGtLN_" version="21.1.5" type="device">
  <diagram name="PÃ¡gina-1" id="8CSWgE_OhyH1YovMQqti">
    <mxGraphModel dx="724" dy="780" grid="1" gridSize="10" guides="1" tooltips="1" connect="1" arrows="1" fold="1" page="1" pageScale="1" pageWidth="827" pageHeight="1169" math="0" shadow="0">
      <root>
        <mxCell id="0" />
        <mxCell id="1" parent="0" />
        <mxCell id="7IMnYIXm-wRzIPA9AK27-1" value="Cliente" style="whiteSpace=wrap;html=1;align=center;labelBackgroundColor=none;fillColor=#fff2cc;strokeColor=#d6b656;" vertex="1" parent="1">
          <mxGeometry x="430" y="210" width="100" height="40" as="geometry" />
        </mxCell>
        <mxCell id="7IMnYIXm-wRzIPA9AK27-17" style="rounded=0;orthogonalLoop=1;jettySize=auto;html=1;exitX=0.5;exitY=0;exitDx=0;exitDy=0;entryX=0.25;entryY=1;entryDx=0;entryDy=0;endArrow=none;endFill=0;" edge="1" parent="1" source="7IMnYIXm-wRzIPA9AK27-3" target="7IMnYIXm-wRzIPA9AK27-1">
          <mxGeometry relative="1" as="geometry" />
        </mxCell>
        <mxCell id="7IMnYIXm-wRzIPA9AK27-3" value="id" style="ellipse;whiteSpace=wrap;html=1;align=center;fontStyle=4;labelBackgroundColor=none;fillColor=#dae8fc;strokeColor=#6c8ebf;" vertex="1" parent="1">
          <mxGeometry x="370" y="290" width="100" height="40" as="geometry" />
        </mxCell>
        <mxCell id="7IMnYIXm-wRzIPA9AK27-14" style="rounded=0;orthogonalLoop=1;jettySize=auto;html=1;exitX=0.5;exitY=0;exitDx=0;exitDy=0;entryX=0.75;entryY=1;entryDx=0;entryDy=0;endArrow=none;endFill=0;" edge="1" parent="1" source="7IMnYIXm-wRzIPA9AK27-4" target="7IMnYIXm-wRzIPA9AK27-1">
          <mxGeometry relative="1" as="geometry" />
        </mxCell>
        <mxCell id="7IMnYIXm-wRzIPA9AK27-4" value="nome" style="ellipse;whiteSpace=wrap;html=1;align=center;labelBackgroundColor=none;fillColor=#dae8fc;strokeColor=#6c8ebf;" vertex="1" parent="1">
          <mxGeometry x="490" y="290" width="100" height="40" as="geometry" />
        </mxCell>
        <mxCell id="7IMnYIXm-wRzIPA9AK27-5" value="Automoveis" style="whiteSpace=wrap;html=1;align=center;labelBackgroundColor=none;fillColor=#fff2cc;strokeColor=#d6b656;" vertex="1" parent="1">
          <mxGeometry x="800" y="250" width="100" height="40" as="geometry" />
        </mxCell>
        <mxCell id="7IMnYIXm-wRzIPA9AK27-18" style="rounded=0;orthogonalLoop=1;jettySize=auto;html=1;exitX=0.5;exitY=0;exitDx=0;exitDy=0;entryX=0.25;entryY=0;entryDx=0;entryDy=0;endArrow=none;endFill=0;" edge="1" parent="1" source="7IMnYIXm-wRzIPA9AK27-6" target="7IMnYIXm-wRzIPA9AK27-5">
          <mxGeometry relative="1" as="geometry" />
        </mxCell>
        <mxCell id="7IMnYIXm-wRzIPA9AK27-6" value="id" style="ellipse;whiteSpace=wrap;html=1;align=center;fontStyle=4;labelBackgroundColor=none;fillColor=#dae8fc;strokeColor=#6c8ebf;" vertex="1" parent="1">
          <mxGeometry x="700" y="190" width="100" height="40" as="geometry" />
        </mxCell>
        <mxCell id="7IMnYIXm-wRzIPA9AK27-19" style="rounded=0;orthogonalLoop=1;jettySize=auto;html=1;exitX=0.5;exitY=0;exitDx=0;exitDy=0;entryX=0.57;entryY=-0.1;entryDx=0;entryDy=0;endArrow=none;endFill=0;entryPerimeter=0;" edge="1" parent="1" source="7IMnYIXm-wRzIPA9AK27-7" target="7IMnYIXm-wRzIPA9AK27-5">
          <mxGeometry relative="1" as="geometry" />
        </mxCell>
        <mxCell id="7IMnYIXm-wRzIPA9AK27-7" value="modelo" style="ellipse;whiteSpace=wrap;html=1;align=center;labelBackgroundColor=none;fillColor=#dae8fc;strokeColor=#6c8ebf;" vertex="1" parent="1">
          <mxGeometry x="810" y="180" width="100" height="40" as="geometry" />
        </mxCell>
        <mxCell id="7IMnYIXm-wRzIPA9AK27-20" style="rounded=0;orthogonalLoop=1;jettySize=auto;html=1;exitX=0.5;exitY=0;exitDx=0;exitDy=0;entryX=0.75;entryY=0;entryDx=0;entryDy=0;endArrow=none;endFill=0;" edge="1" parent="1" source="7IMnYIXm-wRzIPA9AK27-8" target="7IMnYIXm-wRzIPA9AK27-5">
          <mxGeometry relative="1" as="geometry" />
        </mxCell>
        <mxCell id="7IMnYIXm-wRzIPA9AK27-8" value="preco" style="ellipse;whiteSpace=wrap;html=1;align=center;labelBackgroundColor=none;fillColor=#dae8fc;strokeColor=#6c8ebf;" vertex="1" parent="1">
          <mxGeometry x="920" y="190" width="100" height="40" as="geometry" />
        </mxCell>
        <mxCell id="7IMnYIXm-wRzIPA9AK27-41" style="rounded=0;orthogonalLoop=1;jettySize=auto;html=1;exitX=1;exitY=0.5;exitDx=0;exitDy=0;entryX=0;entryY=0.5;entryDx=0;entryDy=0;endArrow=none;endFill=0;" edge="1" parent="1" source="7IMnYIXm-wRzIPA9AK27-9" target="7IMnYIXm-wRzIPA9AK27-38">
          <mxGeometry relative="1" as="geometry" />
        </mxCell>
        <mxCell id="7IMnYIXm-wRzIPA9AK27-51" value="" style="edgeStyle=orthogonalEdgeStyle;rounded=0;orthogonalLoop=1;jettySize=auto;html=1;" edge="1" parent="1" source="7IMnYIXm-wRzIPA9AK27-9" target="7IMnYIXm-wRzIPA9AK27-38">
          <mxGeometry relative="1" as="geometry" />
        </mxCell>
        <mxCell id="7IMnYIXm-wRzIPA9AK27-9" value="Concessionaria" style="whiteSpace=wrap;html=1;align=center;labelBackgroundColor=none;fillColor=#fff2cc;strokeColor=#d6b656;" vertex="1" parent="1">
          <mxGeometry x="630" y="410" width="100" height="40" as="geometry" />
        </mxCell>
        <mxCell id="7IMnYIXm-wRzIPA9AK27-12" style="rounded=0;orthogonalLoop=1;jettySize=auto;html=1;exitX=0.5;exitY=0;exitDx=0;exitDy=0;entryX=0.25;entryY=1;entryDx=0;entryDy=0;endArrow=none;endFill=0;" edge="1" parent="1" source="7IMnYIXm-wRzIPA9AK27-10" target="7IMnYIXm-wRzIPA9AK27-9">
          <mxGeometry relative="1" as="geometry" />
        </mxCell>
        <mxCell id="7IMnYIXm-wRzIPA9AK27-10" value="&lt;span style=&quot;border-bottom: 1px dotted&quot;&gt;id&lt;/span&gt;" style="ellipse;whiteSpace=wrap;html=1;align=center;labelBackgroundColor=none;fillColor=#dae8fc;strokeColor=#6c8ebf;" vertex="1" parent="1">
          <mxGeometry x="570" y="470" width="100" height="40" as="geometry" />
        </mxCell>
        <mxCell id="7IMnYIXm-wRzIPA9AK27-13" style="rounded=0;orthogonalLoop=1;jettySize=auto;html=1;exitX=0.5;exitY=0;exitDx=0;exitDy=0;entryX=0.75;entryY=1;entryDx=0;entryDy=0;endArrow=none;endFill=0;" edge="1" parent="1" source="7IMnYIXm-wRzIPA9AK27-11" target="7IMnYIXm-wRzIPA9AK27-9">
          <mxGeometry relative="1" as="geometry" />
        </mxCell>
        <mxCell id="7IMnYIXm-wRzIPA9AK27-11" value="nome" style="ellipse;whiteSpace=wrap;html=1;align=center;fontStyle=4;labelBackgroundColor=none;fillColor=#dae8fc;strokeColor=#6c8ebf;" vertex="1" parent="1">
          <mxGeometry x="690" y="470" width="100" height="40" as="geometry" />
        </mxCell>
        <mxCell id="7IMnYIXm-wRzIPA9AK27-22" value="Alocacao" style="whiteSpace=wrap;html=1;align=center;fillColor=#fff2cc;strokeColor=#d6b656;" vertex="1" parent="1">
          <mxGeometry x="220" y="410" width="100" height="40" as="geometry" />
        </mxCell>
        <mxCell id="7IMnYIXm-wRzIPA9AK27-37" style="rounded=0;orthogonalLoop=1;jettySize=auto;html=1;exitX=0.5;exitY=0;exitDx=0;exitDy=0;entryX=0.5;entryY=1;entryDx=0;entryDy=0;endArrow=none;endFill=0;" edge="1" parent="1" source="7IMnYIXm-wRzIPA9AK27-23" target="7IMnYIXm-wRzIPA9AK27-22">
          <mxGeometry relative="1" as="geometry" />
        </mxCell>
        <mxCell id="7IMnYIXm-wRzIPA9AK27-23" value="automovel" style="ellipse;whiteSpace=wrap;html=1;align=center;fillColor=#dae8fc;strokeColor=#6c8ebf;" vertex="1" parent="1">
          <mxGeometry x="220" y="530" width="100" height="40" as="geometry" />
        </mxCell>
        <mxCell id="7IMnYIXm-wRzIPA9AK27-24" style="edgeStyle=orthogonalEdgeStyle;rounded=0;orthogonalLoop=1;jettySize=auto;html=1;exitX=0.5;exitY=1;exitDx=0;exitDy=0;" edge="1" parent="1" source="7IMnYIXm-wRzIPA9AK27-23" target="7IMnYIXm-wRzIPA9AK27-23">
          <mxGeometry relative="1" as="geometry" />
        </mxCell>
        <mxCell id="7IMnYIXm-wRzIPA9AK27-32" style="rounded=0;orthogonalLoop=1;jettySize=auto;html=1;exitX=0.5;exitY=0;exitDx=0;exitDy=0;entryX=0.25;entryY=1;entryDx=0;entryDy=0;endArrow=none;endFill=0;" edge="1" parent="1" source="7IMnYIXm-wRzIPA9AK27-26" target="7IMnYIXm-wRzIPA9AK27-22">
          <mxGeometry relative="1" as="geometry" />
        </mxCell>
        <mxCell id="7IMnYIXm-wRzIPA9AK27-26" value="area" style="ellipse;whiteSpace=wrap;html=1;align=center;fillColor=#dae8fc;strokeColor=#6c8ebf;" vertex="1" parent="1">
          <mxGeometry x="110" y="520" width="100" height="40" as="geometry" />
        </mxCell>
        <mxCell id="7IMnYIXm-wRzIPA9AK27-34" style="rounded=0;orthogonalLoop=1;jettySize=auto;html=1;exitX=0.5;exitY=0;exitDx=0;exitDy=0;entryX=0.75;entryY=1;entryDx=0;entryDy=0;endArrow=none;endFill=0;" edge="1" parent="1" source="7IMnYIXm-wRzIPA9AK27-27" target="7IMnYIXm-wRzIPA9AK27-22">
          <mxGeometry relative="1" as="geometry" />
        </mxCell>
        <mxCell id="7IMnYIXm-wRzIPA9AK27-27" value="concessionaria" style="ellipse;whiteSpace=wrap;html=1;align=center;fillColor=#dae8fc;strokeColor=#6c8ebf;" vertex="1" parent="1">
          <mxGeometry x="330" y="520" width="100" height="40" as="geometry" />
        </mxCell>
        <mxCell id="7IMnYIXm-wRzIPA9AK27-31" style="rounded=0;orthogonalLoop=1;jettySize=auto;html=1;exitX=0.5;exitY=0;exitDx=0;exitDy=0;entryX=0;entryY=1;entryDx=0;entryDy=0;endArrow=none;endFill=0;" edge="1" parent="1" source="7IMnYIXm-wRzIPA9AK27-28" target="7IMnYIXm-wRzIPA9AK27-22">
          <mxGeometry relative="1" as="geometry" />
        </mxCell>
        <mxCell id="7IMnYIXm-wRzIPA9AK27-28" value="id" style="ellipse;whiteSpace=wrap;html=1;align=center;fontStyle=4;fillColor=#dae8fc;strokeColor=#6c8ebf;" vertex="1" parent="1">
          <mxGeometry x="60" y="470" width="100" height="40" as="geometry" />
        </mxCell>
        <mxCell id="7IMnYIXm-wRzIPA9AK27-35" style="rounded=0;orthogonalLoop=1;jettySize=auto;html=1;exitX=0.5;exitY=0;exitDx=0;exitDy=0;entryX=1;entryY=1;entryDx=0;entryDy=0;endArrow=none;endFill=0;" edge="1" parent="1" source="7IMnYIXm-wRzIPA9AK27-30" target="7IMnYIXm-wRzIPA9AK27-22">
          <mxGeometry relative="1" as="geometry" />
        </mxCell>
        <mxCell id="7IMnYIXm-wRzIPA9AK27-30" value="quantidade" style="ellipse;whiteSpace=wrap;html=1;align=center;fillColor=#dae8fc;strokeColor=#6c8ebf;" vertex="1" parent="1">
          <mxGeometry x="380" y="470" width="100" height="40" as="geometry" />
        </mxCell>
        <mxCell id="7IMnYIXm-wRzIPA9AK27-40" style="rounded=0;orthogonalLoop=1;jettySize=auto;html=1;exitX=0.5;exitY=0;exitDx=0;exitDy=0;entryX=0.5;entryY=1;entryDx=0;entryDy=0;endArrow=none;endFill=0;" edge="1" parent="1" source="7IMnYIXm-wRzIPA9AK27-38" target="7IMnYIXm-wRzIPA9AK27-5">
          <mxGeometry relative="1" as="geometry" />
        </mxCell>
        <mxCell id="7IMnYIXm-wRzIPA9AK27-38" value="tem" style="shape=rhombus;perimeter=rhombusPerimeter;whiteSpace=wrap;html=1;align=center;fillColor=#d5e8d4;strokeColor=#82b366;" vertex="1" parent="1">
          <mxGeometry x="790" y="400" width="120" height="60" as="geometry" />
        </mxCell>
        <mxCell id="7IMnYIXm-wRzIPA9AK27-46" style="edgeStyle=orthogonalEdgeStyle;rounded=0;orthogonalLoop=1;jettySize=auto;html=1;exitX=1;exitY=0.5;exitDx=0;exitDy=0;endArrow=none;endFill=0;" edge="1" parent="1" source="7IMnYIXm-wRzIPA9AK27-45" target="7IMnYIXm-wRzIPA9AK27-9">
          <mxGeometry relative="1" as="geometry" />
        </mxCell>
        <mxCell id="7IMnYIXm-wRzIPA9AK27-47" style="edgeStyle=orthogonalEdgeStyle;rounded=0;orthogonalLoop=1;jettySize=auto;html=1;exitX=0;exitY=0.5;exitDx=0;exitDy=0;endArrow=none;endFill=0;" edge="1" parent="1" source="7IMnYIXm-wRzIPA9AK27-45" target="7IMnYIXm-wRzIPA9AK27-22">
          <mxGeometry relative="1" as="geometry" />
        </mxCell>
        <mxCell id="7IMnYIXm-wRzIPA9AK27-45" value="aluga" style="shape=rhombus;perimeter=rhombusPerimeter;whiteSpace=wrap;html=1;align=center;fillColor=#d5e8d4;strokeColor=#82b366;" vertex="1" parent="1">
          <mxGeometry x="420" y="400" width="120" height="60" as="geometry" />
        </mxCell>
        <mxCell id="7IMnYIXm-wRzIPA9AK27-48" value="1" style="text;html=1;align=center;verticalAlign=middle;resizable=0;points=[];autosize=1;strokeColor=none;fillColor=none;" vertex="1" parent="1">
          <mxGeometry x="536" y="409" width="30" height="30" as="geometry" />
        </mxCell>
        <mxCell id="7IMnYIXm-wRzIPA9AK27-49" value="n" style="text;html=1;align=center;verticalAlign=middle;resizable=0;points=[];autosize=1;strokeColor=none;fillColor=none;" vertex="1" parent="1">
          <mxGeometry x="320" y="409" width="30" height="30" as="geometry" />
        </mxCell>
        <mxCell id="7IMnYIXm-wRzIPA9AK27-52" value="0" style="text;html=1;align=center;verticalAlign=middle;resizable=0;points=[];autosize=1;strokeColor=none;fillColor=none;" vertex="1" parent="1">
          <mxGeometry x="726" y="409" width="30" height="30" as="geometry" />
        </mxCell>
        <mxCell id="7IMnYIXm-wRzIPA9AK27-53" value="n" style="text;html=1;align=center;verticalAlign=middle;resizable=0;points=[];autosize=1;strokeColor=none;fillColor=none;" vertex="1" parent="1">
          <mxGeometry x="819" y="374" width="30" height="30" as="geometry" />
        </mxCell>
      </root>
    </mxGraphModel>
  </diagram>
</mxfile>
